<?xml version="1.0" encoding="UTF-8"?>
<svg id="_編集モード" data-name="編集モード" xmlns="http://www.w3.org/2000/svg" viewBox="0 0 138.22 16.89">
  <defs>
    <style>
      .cls-1 {
        fill: #ffffff;
      }
    </style>
  </defs>
  <g>
    <path class="cls-1" d="M126.62,13.5c.06,.01,.08-.01,.05-.07-.56-1.03-.81-2.15-.74-3.13,.12-1.68,.96-2.84,1.59-3.55,.14-.16,.37-.17,.44,0,1.28,3.01,4.83,3.53,7.25,2.97,.15-.03,.22-.06,.21-.16-.01-.19-.09-.34-.18-.52-.14-.21,.02-.23,.18-.08,.24,.23,.25,.5,.22,.71,0,.04,0,.07,.05,.09,.63,.31,.78,1.06,.72,1.91-.04,.6-.15,1.17-.32,1.69-.02,.06,.01,.09,.07,.07,.61-.21,1.31-.16,1.82,.22,.15,.11,.11,.19-.04,.18-.49-.02-1.04,.15-1.22,.21-.18,.06-.22-.08-.06-.16,.18-.09,.42-.16,.64-.21,.14-.03,.14-.08,.02-.11-.35-.08-.85-.01-1.28,.11-.04,.01-.06,.03-.07,.07-.08,.2-.17,.39-.26,.58-.01,.02-.02,.05-.01,.07,.05,.32,.17,.64,.26,.91,.01,.03,.04,.05,.07,.03,.74-.33,1.5-.65,2.01-1.03,.2-.15,.27-.04,.14,.11-.66,.78-1.93,1-3.35,1.85-.41,.24-.71,.32-.98,.28-.21-.02-.23-.1-.03-.19,.65-.28,1.11-.65,1.46-1.24,.11-.19-.02-.22-.12-.11-.51,.54-1.27,1.55-3.51,1.46-1.43-.05-2.79-.85-3.61-1.75-.19-.21-.32-.1-.15,.12,.75,.99,1.57,1.31,2.18,1.57,.2,.1,.05,.19-.11,.22-.71,.11-1.97-.57-2.39-.76-.42-.19-.8-.27-1.23-.47-.44-.2-.7-.52-1.11-.73-.13-.07-.09-.18,.07-.14,.44,.1,.85,.53,1.15,.67,.1,.04,.21,.09,.33,.13,.03,.01,.06,0,.07-.03,.13-.26,.28-.72,.33-1.09,0-.03,0-.05-.02-.07-.09-.12-.17-.24-.25-.37-.02-.04-.05-.04-.09-.04-.02,0-.04,0-.06,0-.43-.05-.85,0-1.06,.04-.21,.04-.14,.1-.02,.12,.21,.03,.52,.11,.66,.19,.13,.08,.08,.2-.08,.14-.33-.11-.9-.17-1.15-.2-.2-.03-.21-.14-.03-.24,.52-.28,1.11-.38,1.58-.27Zm-1.5,.69c.22,0,.54,.03,.72,.1s.11,.2-.02,.18c-.14-.02-.54-.1-.71-.12-.19-.02-.16-.16,.01-.16Zm11.17-7.76c-.11-.23-.16-.39-.19-.6-.04-.25,.1-.28,.18-.07,.09,.25,.18,.48,.29,.48,.1,0,.13-.25,.1-.45-.01-.09,0-.16,0-.23,.06-1.83-1.05-4.13-3.36-4.3-.52-.04-.91-.03-1.46,.08-.04,0-.07,0-.1-.02-.55-.47-1.35-.78-2.26-.9-1.15-.16-1.84-.05-3.34-.13-.6,0-.71,.26-.38,.77,.34,.52,1.01,1.23,2.49,1.5,.37,.07,.65,.11,.9,.12,.28,.02,.4-.02,.52-.12,.38-.32,.76-.65,1.18-.82,.3-.13,.28,0,.12,.1-.32,.21-.83,.58-1.13,.89-.13,.13-.39,.43-.49,.57-.06,.09-.05,.12,.09,.08,.43-.14,.75-.31,1.36-.55,.25-.1,.24,.07,.11,.15-.82,.48-2.33,1.02-3.68,1.77-.67,.38-1.28,.75-1.67,.99-.61,.38-.42,.94,.43,1.02,1.2,.11,4.78-1.27,5.82-1.83,.22-.12,.31,0,.07,.17-.18,.13-.72,.39-1.18,.54-.04,.01-.05,.04-.02,.07,.85,1.03,2.34,1.77,3.97,1.43,.16-.03,.3-.01,.39,.03,.41,.19,.75,.56,.94,.78,.14,.16,.23,.08,.16-.07-.15-.29-.36-.54-.63-.76-.06-.05-.04-.08,.01-.1,.37-.12,.59-.26,.72-.38,.09-.09,.1-.12,.05-.22Zm-5.17-2.45c.27-.03,.26,.16,.04,.21-1.3,.33-2.74,1.29-3.99,1.81-.25,.1-.34-.05-.13-.18,1.16-.73,3.02-1.74,4.08-1.85Zm1.58,9.08c.11-.11,.03-.23-.13-.12-.64,.47-1.22,.63-1.88,.63-.24,0-.24,.18-.03,.23,.61,.14,1.32-.03,2.04-.73Zm.66,.95c.04-.18-.1-.21-.17-.04-.28,.71-.69,1.22-1.39,1.47-.25,.09-.19,.31,.08,.25,.84-.2,1.28-.87,1.47-1.68Zm-.43-.65c.06-.13-.03-.2-.14-.09-.19,.2-.54,.53-.94,.67-.29,.1-.18,.36,.07,.26,.55-.2,.89-.6,1.01-.85Zm.04,.65c.07-.15,0-.27-.16-.08-.18,.22-.47,.48-.73,.63-.23,.14-.15,.34,.09,.24,.4-.16,.65-.5,.79-.79Zm1.29-8.84c-.45-.43-.49-.95-.28-1.15,.15-.15,.7-.23,1.11,.25s.39,.91,.17,1.08c-.22,.17-.59,.21-1-.18Zm.62-.69c.17,.2,.21,.44,.09,.54-.11,.08-.34,.07-.53-.11-.19-.18-.24-.42-.13-.55,.08-.09,.36-.13,.57,.13Zm.27,3.08c.32,.14,.64,.38,.79,.67,.09,.17,0,.24-.12,.14-.17-.17-.49-.44-.79-.65-.18-.13-.06-.24,.12-.16Zm.16,.7c.25,.16,.46,.42,.54,.72,.03,.13-.09,.19-.15,.08-.13-.22-.3-.45-.49-.66-.15-.16-.05-.24,.11-.14Zm2.57,5.74c.19-.04,.17,.07,.06,.14-.16,.1-.53,.17-.83,.19-.19,0-.21-.13-.03-.17,.24-.05,.59-.12,.81-.16Z"/>
    <g>
      <path class="cls-1" d="M79.92,3.37v.34h-2.49v1.21h.7l.59-.79,1.02,.95v.34h-2.3v1.24h2.28l.74-.87,1.18,1.03v.34h-3.93c.79,.77,2.8,1.65,3.88,1.7l.05,.33c-.52,.12-.62,.18-.81,.49l-.04,.05s-.03,.04-.04,.07c-1.58-.64-2.55-1.32-3.79-2.64h-2.66c-.01,.12-.16,.22-.42,.27-1.42,1.49-2.73,2.32-4.46,2.8-.13,.04-.14,.04-.27,.08l-.09-.37,.12-.05,.08-.04,.18-.08c1.47-.63,2.54-1.43,3.54-2.61h-3.67v-.5h3.97v-1.24h-2.23v-.5h2.23v-1.21h-2.54v-.5h2.54v-1.17l.95,.15c.2,.04,.34,.15,.34,.29,0,.15-.1,.26-.4,.39v.34h2.38v-1.17l.94,.15c.21,.04,.35,.15,.35,.29,0,.15-.1,.25-.4,.39v.34h.99l.53-.7,.53,.48,.35-1.03h-8.84c-.18,.82-.31,1.16-.59,1.59-.23,.35-.6,.63-.83,.63-.17,0-.3-.22-.3-.55,0-.26,.04-.32,.59-.9,.43-.48,.59-.84,.78-1.87h.39v.6h3.77V.31l.95,.15c.21,.04,.35,.15,.35,.29s-.1,.25-.42,.39v.3h4.13l.52-.63,.61,.48c.34,.27,.56,.54,.56,.69,0,.19-.2,.26-.85,.27l-.9,.94-.22-.15,.36,.33Zm-8.04,6.14c1.71,.11,2.15,.16,3.22,.34,1.68,.3,2.56,.59,2.92,.91,.18,.19,.33,.43,.33,.6,0,.18-.14,.28-.36,.28-.27,0-.47-.07-1.38-.52-1.18-.57-3.16-1.1-4.76-1.27l.05-.35Zm2.13-1.77c2.33,.22,3.37,.62,3.37,1.3,0,.21-.13,.39-.29,.39q-.17,0-1.04-.54c-.61-.36-1.37-.66-2.15-.82l.1-.33Zm2.54-2.82v-1.21h-2.38v1.21h2.38Zm0,1.75v-1.24h-2.38v1.24h2.38Z"/>
      <path class="cls-1" d="M84.32,2.92h4V.29l.95,.15c.2,.04,.35,.15,.35,.29s-.12,.25-.42,.39v1.8h3.93l.49-.59,.59,.53c.29,.26,.43,.45,.43,.57,0,.14-.18,.28-.51,.42v3.19c0,.23,.01,.42,.03,.53,.01,.16,.03,.28,.03,.37,0,.3-.3,.56-.65,.56-.18,0-.29-.09-.29-.25v-.54h-4.05v2.43c0,.22,.01,.4,.03,.53,.01,.15,.03,.28,.03,.36,0,.32-.3,.57-.65,.57-.18,0-.29-.08-.29-.25v-3.64h-4.04c.01,.08,.01,.15,.03,.18,.01,.15,.01,.27,.01,.36,0,.32-.29,.59-.64,.59-.18,0-.29-.09-.29-.26V2.28l.92,.64Zm4,4.3V3.43h-4.04v3.8h4.04Zm4.93,0V3.43h-4.05v3.8h4.05Z"/>
      <path class="cls-1" d="M95.23,11.11c3.05-.28,4.05-1.11,4.43-3.67h-1.74c.01,.07,.01,.14,.01,.15,.03,.15,.03,.27,.03,.36,0,.32-.29,.59-.64,.59-.18,0-.29-.09-.29-.26V.62l.74,.36h6.96l.44-.53,.56,.48c.08,.07,.16,.13,.23,.19,.17,.13,.26,.25,.26,.36,0,.15-.18,.3-.49,.41V6.5c0,.26,0,.52,.01,.55,.01,.14,.01,.26,.01,.33,0,.34-.29,.64-.62,.64-.18,0-.29-.11-.29-.27v-.3h-1.64c-.04,.16-.1,.26-.25,.33v2.21c0,.36,.04,.56,.09,.61,.05,.06,.33,.09,.79,.11h1.38c1.03-.06,1.22-.27,1.5-1.7l.22-1.15h.43l-.08,1.66c-.01,.25-.03,.53-.03,.53-.01,.04-.01,.06-.01,.08q0,.08,.33,.26c.09,.04,.16,.18,.16,.3,0,.26-.16,.45-.46,.56-.35,.13-1.22,.25-1.91,.25h-1.74c-1.2,.01-1.56-.21-1.55-.96v-3.09h-1.16c-.03,.18-.16,.32-.35,.35-.23,1.02-.38,1.43-.7,1.95-.7,1.14-2.19,1.76-4.14,1.76h-.49v-.39Zm9.62-8.14V1.48h-6.94v1.49h6.94Zm0,1.91v-1.41h-6.94v1.41h6.94Zm0,2.06v-1.56h-6.94v1.56h6.94Z"/>
      <path class="cls-1" d="M112.26,5.76c.22,.09,.33,.2,.33,.32,0,.16-.2,.27-.6,.3l-.38,.47h1.67l.46-.49,.66,.6c.16,.14,.34,.39,.34,.45,0,.18-.25,.29-.69,.32-1.33,1.93-2.89,3.13-5.15,3.98l-.14-.3c1.16-.68,2.15-1.39,2.69-1.96-.16-.47-.6-1.11-.95-1.37-.53,.42-.92,.69-1.61,1.1l-.13-.28c.92-.73,1.93-1.97,2.67-3.27v-.04s-1.9,0-1.9,0v-.5h1.59v-1.31h-1.48l-.46,.34-.22-.32c1.3-1.31,2.06-2.31,2.67-3.54l.64,.21c.33,.12,.46,.2,.46,.33,0,.16-.17,.27-.56,.35l-.22,.33h7.25l.53-.6,1.12,.76v.34h-1.51c-.03,.12-.13,.23-.26,.27v1.02h.65l.6-.53,1.02,.69v.34h-2.26v1.31h.7l.55-.56,.94,.73v.34h-9.4l.42,.18Zm-1.16-2.5v-.82c-.31,.33-.39,.41-.83,.82h.83Zm.05,4.09c-.18,.22-.22,.25-.42,.45,.81,.29,1.17,.56,1.34,1.01,.47-.53,.69-.84,1.07-1.45h-1.99Zm2.28-4.09V1.98h-1.2c-.03,.13-.09,.2-.25,.25v1.04h1.44Zm0,1.82v-1.31h-1.44v1.31h1.44Zm2.1,4v-1.72h-.52v-.5h3.16v-1.17l.95,.15c.21,.04,.35,.15,.35,.29s-.1,.25-.42,.37v.35h.68l.55-.57,1.04,.74v.34h-2.26v1.72h.61l.66-.66,1.07,.82v.34h-2.34v.57c0,.22,.01,.4,.03,.54,.01,.15,.03,.27,.03,.36,0,.32-.3,.57-.65,.57-.18,0-.29-.09-.29-.26v-1.79h-4.35v-.5h1.71Zm.25-5.81V1.98h-1.21v.05c0,.09-.07,.14-.25,.21v1.03h1.46Zm0,1.82v-1.31h-1.46v1.31h1.46Zm2.4,4v-1.72h-1.47c-.04,.22-.12,.33-.29,.36v1.36h1.76Zm0-5.81V1.98h-1.31c-.03,.13-.05,.16-.2,.25v1.04h1.51Zm0,1.82v-1.31h-1.51v1.31h1.51Z"/>
    </g>
    <g>
      <path class="cls-1" d="M70.22,12.75s0-.06,0-.07c0,0,0,0-.05-.01-.09-.01-.13-.03-.13-.07,0-.03,.02-.05,.08-.08,.12-.06,.21-.09,.31-.09s.11,0,.11,.27v.53h.31c.17,0,.25,.04,.32,.15,.09,.13,.13,.35,.13,.66,0,.54-.1,1.08-.26,1.43-.17,.37-.45,.66-.77,.8-.06,.02-.09,.04-.19,.07l-.05-.11c.22-.12,.33-.23,.49-.43,.3-.39,.47-.98,.47-1.67,0-.53-.07-.72-.24-.72h-.62c-.13,0-.26,.08-.34,.22v.75c0,.09-.01,.14-.05,.18-.04,.05-.11,.08-.18,.08-.07,0-.08-.02-.08-.18v-1.28c.2,.05,.24,.07,.34,.18,.09-.1,.17-.14,.28-.14h.13v-.48Z"/>
      <path class="cls-1" d="M80.11,14.05h-.26c-.11,0-.2,0-.39,.04l-.02-.05,.18-.21s.05,0,.05,0h.02c.07,.01,.14,.02,.19,.02h.54c.14,0,.21-.04,.25-.13l.33,.12c-.08,.15-.15,.19-.4,.2h-.23v1.79h.16c.14,0,.21-.04,.25-.13l.33,.12c-.08,.18-.16,.23-.4,.24h-1.35l.18-.24h.55v-1.79Z"/>
      <g>
        <path class="cls-1" d="M89.43,16.11c.17-.09,.22-.12,.33-.21,.36-.3,.63-.75,.8-1.33,.11-.36,.16-.74,.16-1.1,0-.24-.07-.34-.26-.34h-.93c-.11,0-.19,0-.39,.04l-.02-.05,.18-.21s.05,0,.05,0h.02c.07,.01,.14,.02,.19,.02h1.01c.16,0,.24,.01,.31,.06,.1,.08,.15,.24,.15,.47,0,.74-.22,1.51-.58,2.02-.22,.31-.47,.52-.78,.65-.07,.03-.11,.04-.21,.08l-.04-.11Z"/>
        <path class="cls-1" d="M91.09,12.86c0,.05-.02,.08-.08,.08h-.11c-.05,0-.08-.02-.08-.08v-.47c0-.05,.02-.08,.08-.08h.11c.05,0,.08,.02,.08,.08v.47Zm.48,0c0,.05-.02,.08-.07,.08h-.12c-.05,0-.08-.02-.08-.08v-.47c0-.05,.02-.08,.08-.08h.12s.07,.02,.07,.08v.47Z"/>
      </g>
      <path class="cls-1" d="M100,14.64c0,.12,0,.16-.02,.19-.03,.07-.09,.11-.19,.11-.06,0-.08-.04-.08-.18v-1.01h-.08c-.12,0-.2,0-.38,.04l-.02-.05,.18-.21s.05,0,.05,0h.02c.07,.01,.14,.02,.19,.02h.05v-.68c0-.07-.02-.09-.11-.1-.05,0-.07-.02-.07-.05,0-.07,.21-.17,.37-.17,.1,0,.1,0,.1,.27v.73h.58v-.75c0-.07-.02-.09-.11-.1-.05,0-.07-.02-.07-.05s.02-.05,.06-.08c.11-.06,.21-.09,.31-.09s.1,0,.1,.27v.8c.08,0,.14-.04,.17-.13l.33,.12c-.07,.15-.13,.19-.34,.2h-.16v.75c0,.99-.03,1.15-.3,1.47-.17,.19-.36,.29-.66,.36l-.03-.11c.23-.11,.38-.23,.5-.39,.17-.27,.19-.39,.19-1.33v-.75h-.58v.89Z"/>
      <path class="cls-1" d="M109.19,14.74c.39-.24,.57-.4,.86-.78,.21-.27,.4-.61,.55-.97,.06-.13,.07-.18,.07-.21,0-.03-.03-.05-.12-.07-.04-.01-.06-.02-.06-.04,0-.03,.02-.05,.07-.07,.12-.04,.23-.06,.35-.06s.17,.04,.17,.11c0,.11-.08,.35-.23,.63-.13,.26-.26,.46-.46,.71,.05,.04,.06,.08,.06,.24v.86c0,.28,0,.6,0,.97v.11c0,.14-.07,.21-.21,.21-.08,0-.1-.03-.1-.17q0-.08,0-.45c0-.09,0-.8,0-.99v-.42c0-.05,0-.07,0-.09-.26,.26-.56,.45-.92,.57l-.04-.09Z"/>
      <path class="cls-1" d="M119.82,13.83c.59,.05,1.18,.41,1.18,.74,0,.1-.1,.21-.2,.21-.04,0-.05,0-.12-.15-.18-.32-.55-.6-.85-.64v2.13c0,.14,0,.18-.04,.22-.04,.05-.08,.08-.14,.08-.08,0-.12-.05-.12-.21v-3.48s-.01-.05-.07-.06c-.07,0-.11-.02-.11-.05,0-.02,.02-.05,.08-.1,.12-.09,.22-.13,.31-.13,.08,0,.08,.02,.08,.28v1.16Z"/>
    </g>
  </g>
  <rect class="cls-1" x="63.09" width=".66" height="16.89"/>
  <g>
    <path class="cls-1" d="M6.32,8v2.72h-.8v-2.59c0-.63-.37-1.07-.91-1.07-.61,0-1.04,.4-1.04,.99v2.67h-.8v-2.59c0-.63-.37-1.07-.91-1.07-.61,0-1.04,.4-1.04,.99v2.67H0V6.45H.82v.59c.21-.42,.66-.69,1.21-.69,.62,0,1.12,.33,1.37,.86,.2-.53,.74-.86,1.39-.86,.89,0,1.54,.69,1.54,1.65Z"/>
    <path class="cls-1" d="M7.4,5.24c0-.26,.21-.49,.5-.49,.26,0,.49,.23,.49,.49s-.22,.5-.49,.5c-.28,0-.5-.23-.5-.5Zm.08,1.21h.82v4.27h-.82V6.45Z"/>
    <path class="cls-1" d="M9.29,10.11l2.39-2.92h-2.35v-.73h3.42v.61l-2.39,2.92h2.41v.73h-3.48v-.61Z"/>
    <path class="cls-1" d="M18.1,8.58c0,1.31-.84,2.24-1.97,2.24-.66,0-1.19-.31-1.52-.84v2.16h-.81V6.45h.81v.73c.33-.52,.86-.83,1.52-.83,1.12,0,1.97,.92,1.97,2.23Zm-.83,0c0-.89-.55-1.52-1.34-1.52s-1.32,.63-1.32,1.52,.55,1.53,1.32,1.53,1.34-.64,1.34-1.53Z"/>
    <path class="cls-1" d="M22.87,8v2.72h-.8v-2.58c0-.64-.4-1.08-.98-1.08-.64,0-1.18,.45-1.18,1.01v2.65h-.81V4.95h.81v2.14c.26-.43,.78-.74,1.36-.74,.94,0,1.6,.69,1.6,1.65Z"/>
    <path class="cls-1" d="M23.76,10.18l.39-.59c.45,.33,.94,.52,1.44,.52s.81-.22,.81-.55c0-.4-.44-.52-.97-.67-.98-.27-1.47-.55-1.47-1.25,0-.78,.64-1.3,1.55-1.3,.55,0,1.11,.19,1.58,.5l-.36,.6c-.41-.26-.84-.4-1.21-.4-.42,0-.75,.18-.75,.5s.26,.43,.98,.65c.7,.21,1.45,.44,1.45,1.29s-.69,1.32-1.62,1.32c-.63,0-1.31-.22-1.82-.64Z"/>
    <path class="cls-1" d="M31.33,9.63l.51,.53c-.38,.4-1.12,.66-1.73,.66-1.19,0-2.2-.93-2.2-2.25s.95-2.22,2.13-2.22c1.3,0,2.06,.99,2.06,2.52h-3.36c.11,.71,.63,1.22,1.36,1.22,.45,0,.97-.2,1.22-.46Zm-2.58-1.41h2.56c-.09-.66-.5-1.14-1.23-1.14-.66,0-1.2,.45-1.33,1.14Z"/>
    <path class="cls-1" d="M32.77,10.18l.39-.59c.45,.33,.94,.52,1.44,.52s.81-.22,.81-.55c0-.4-.44-.52-.97-.67-.98-.27-1.47-.55-1.47-1.25,0-.78,.64-1.3,1.55-1.3,.55,0,1.11,.19,1.58,.5l-.36,.6c-.41-.26-.84-.4-1.21-.4-.42,0-.75,.18-.75,.5s.26,.43,.98,.65c.7,.21,1.45,.44,1.45,1.29s-.69,1.32-1.62,1.32c-.63,0-1.31-.22-1.82-.64Z"/>
    <path class="cls-1" d="M37.12,10.26c0-.28,.24-.54,.55-.54,.3,0,.54,.26,.54,.54,0,.31-.24,.56-.54,.56-.31,0-.55-.26-.55-.56Z"/>
    <path class="cls-1" d="M39.12,8.58c0-1.21,1.03-2.23,2.25-2.23,.61,0,1.16,.26,1.57,.66l-.55,.51c-.26-.29-.63-.46-1.02-.46-.78,0-1.42,.69-1.42,1.52s.64,1.53,1.43,1.53c.4,0,.78-.18,1.04-.48l.55,.5c-.41,.42-.97,.69-1.6,.69-1.21,0-2.25-1.02-2.25-2.24Z"/>
    <path class="cls-1" d="M43.61,8.58c0-1.21,1.03-2.23,2.25-2.23s2.24,1.02,2.24,2.23-1.02,2.24-2.24,2.24-2.25-1.02-2.25-2.24Zm3.67,0c0-.83-.65-1.52-1.42-1.52s-1.44,.69-1.44,1.52,.65,1.53,1.44,1.53,1.42-.69,1.42-1.53Z"/>
    <path class="cls-1" d="M55.37,8v2.72h-.8v-2.59c0-.63-.37-1.07-.91-1.07-.61,0-1.04,.4-1.04,.99v2.67h-.8v-2.59c0-.63-.37-1.07-.91-1.07-.61,0-1.04,.4-1.04,.99v2.67h-.82V6.45h.82v.59c.21-.42,.66-.69,1.21-.69,.62,0,1.12,.33,1.37,.86,.2-.53,.74-.86,1.39-.86,.89,0,1.54,.69,1.54,1.65Z"/>
  </g>
</svg>