<?xml version="1.0" encoding="UTF-8"?>
<svg id="_編集モード" data-name="編集モード" xmlns="http://www.w3.org/2000/svg" viewBox="0 0 49.83 214.62">
  <defs>
    <style>
      .cls-1 {
        fill: #ffffff;
      }
    </style>
  </defs>
  <path class="cls-1" d="M47.96,20.97c-4.52-.84-7.79-3.32-9.44-6.09h-3.21c-1.9,2.82-5.5,5.42-9.63,6.56l-1.87-2.12c3.46-.42,6.87-2.23,8.85-4.44l-5.7,.06v-1.9h6.62v-1.23h-3.46v-1.7h3.46v-1.2h-3.94v-1.76h3.94v-1.73h2.18v1.73h2.4v-1.73h2.18v1.73h3.69v1.76h-3.69v1.2h3.16v1.7h-3.16v1.23h6.9v1.9l-6.12-.06c1.54,1.62,4.41,3.18,8.71,3.66l-1.87,2.43Zm-5.14-14.02s.42-1.34,.56-1.93h-13.18v1.96h-2.57V3.04h8.04V0h2.57V3.04h8.63c-.5,1.45-1.48,3.91-1.48,3.91h-2.57Zm-3.99,16.45c-1.34-1.45-3.77-2.4-6.23-2.57l.56-1.82c.36-.03,.7-.06,1.06-.06,2.65,0,5.31,1.06,6.81,2.82l-2.21,1.62Zm-.47-4.16c-.84-.89-2.74-1.56-3.8-1.62l.53-1.65c1.68-.2,3.99,.33,4.97,1.56l-1.7,1.7Zm-.2-10.33h-2.4v1.2h2.4v-1.2Zm0,2.9h-2.4v1.23h2.4v-1.23Z"/>
  <path class="cls-1" d="M35.58,50.06v-8.6h-7.6v-9.1h7.6v-5.22h2.6v5.22h7.96v9.1h-7.96v8.6h-2.6Zm0-15.42h-5.08v4.52h5.08v-4.52Zm8.04,0h-5.45v4.52h5.45v-4.52Z"/>
  <path class="cls-1" d="M36.76,70.73c.56,.11,1.09,.17,1.59,.17,2.68,0,4.27-1.65,4.27-3.24,0-1.37-1.2-2.65-3.85-2.79-1.09-.03-2.26-.03-3.46,.28l-.17,8.15c-1.4,.06-3.24-.39-4.13-.81-1.65-.75-2.51-2.23-2.51-3.8,0-2.04,1.42-4.22,4.44-5.28l.08-4.3h-3.49v-2.18h3.52l.06-2.82,2.43,.03c-.03,.28-.03,1.29-.06,2.79h4.41l-.06,2.18h-4.41c0,1.12-.03,2.37-.06,3.74,.75-.14,1.7-.2,2.62-.2,.39,0,.78,0,1.17,.03,4.24,.28,6.06,2.57,6.06,4.94,0,2.74-2.43,5.61-6.37,5.61-.64,0-1.31-.08-2.04-.25l-.05-2.26Zm-3.85-5c-1.42,.73-2.09,1.82-2.09,2.76s.7,1.84,1.96,2.12l.14-4.89Zm12.85-2.99c-.67-1.12-2.07-1.82-3.49-1.82-.39,0-.75,.06-1.14,.17l.06-2.04c.53-.22,1.2-.36,1.95-.36,1.76,0,3.83,.7,4.58,2.21l-1.96,1.84Z"/>
  <path class="cls-1" d="M36.23,93.6c-.25,4.36-4.33,8.04-11.2,8.15l-1.68-2.43c7.57,.17,10.11-2.93,10.28-5.75l2.6,.03Zm13.43,2.35c-.08,3.77-3.66,5.53-6.95,5.53-2.65,0-5.11-1.12-5.47-3.27,0-.89,0-3.16,.03-5.22h-6.4v-13.57h12.15v13.57h-3.24c-.03,2.18-.06,4.19-.06,4.41,.17,1.01,1.56,1.7,3.13,1.7,2.04,0,4.33-1.2,4.27-4.36l2.54,1.2Zm-9.05-14.47h-7.4v1.9h7.4v-1.9Zm0,3.83h-7.4v1.73h7.4v-1.73Zm0,3.69h-7.4v1.96h7.4v-1.96Z"/>
  <path class="cls-1" d="M34.02,118.19c-.28,.45-.59,.89-.89,1.34h3.32c-1.01,5.11-3.99,9.19-11.09,10.56l-1.51-2.01c5.5-.53,8.6-3.13,9.86-6.79h-1.96c-.33,.42-.67,.78-1.03,1.17,.62,.17,1.17,.42,1.56,.78l-1.62,1.73c-.39-.45-.89-.78-1.48-.92-.92,.87-1.87,1.59-2.71,2.07l-1.84-1.29c2.62-1.51,5.17-4.22,6.76-6.65h-6.03v-2.01h5.31l.03-1.9h-2.79v-1.98h2.82l.03-1.17c-.67,.5-1.37,.89-2.07,1.14l-1.82-1.87c2.93-.67,4.72-2.79,5.33-5.03l2.21,.47c-.28,.98-.7,1.87-1.23,2.68h12.2v2.01h-2.6v1.76h3.18v1.98h-3.18v1.9h5.75v2.01h-14.52Zm.06-7.65h-1.31v1.76h1.31v-1.76Zm0,3.74h-1.31v1.9h1.31v-1.9Zm8.68,12.04v3.49h-2.23v-3.49h-5.75v-2.04h2.21v-4.11l3.55,.03v-1.59h2.23v1.59h2.9v1.96h-2.9v2.12h5.05v2.04h-5.05Zm-5.33-15.78h-1.51v1.76h1.51v-1.76Zm0,3.74h-1.51v1.9h1.51v-1.9Zm3.1,7.87h-1.4v2.12h1.4v-2.12Zm.14-11.62h-1.4v1.76h1.4v-1.76Zm0,3.74h-1.4v1.9h1.4v-1.9Z"/>
  <path class="cls-1" d="M36.42,151.76c-7.32-.2-8.43-5.98-8.43-10.47,0-1.03,.06-2.04,.11-2.85l2.4,.11c-.03,.75-.06,1.51-.06,2.23,0,3.69,.59,7.07,4.08,7.79l1.2-3.04,1.56,2.74-.87,3.49Zm7.9-5.86c-.45-2.49-1.9-4.8-4.08-5.64l1.03-1.87c3.18,1.2,5.28,3.71,5.67,6.62l-2.62,.89Z"/>
  <path class="cls-1" d="M11.98,84.68c0,3.6-.03,6.79-.03,6.79h-2.49v-6.79H2.74v-11.87h6.73v-4.02h2.49v4.02h7.09v11.87h-7.07Zm-2.49-9.75H5.14v2.68h4.36v-2.68Zm0,4.72H5.14v2.93h4.36v-2.93Zm7.09-4.72h-4.66c0,.56,.03,1.62,.03,2.68h4.64v-2.68Zm0,4.72h-4.64v2.93h4.64v-2.93Z"/>
  <path class="cls-1" d="M17.93,112.48c-2.18,1.34-4.38,1.98-6.34,1.98-3.6,0-6.28-2.15-6.17-6.03,.06-2.46,.36-10.05,.45-12.87h2.68c-.08,2.68-.39,10.08-.48,12.37-.06,2.57,1.54,3.94,3.77,3.94,1.82,0,4.08-.92,6.28-2.85l-.2,3.46Z"/>
  <path class="cls-1" d="M0,139.32v-2.49H8.99v-17.82h2.76v8.01h7.15v2.54h-7.15v7.26h9.77v2.49H0Z"/>
  <path class="cls-1" d="M4.33,161.72c-.98-2.21-1.29-4.69-1.29-7.09,0-3.43,.67-6.7,1.09-8.77l2.6,.25c-.48,2.04-1.17,5.25-1.17,8.35,0,1.17,.08,2.32,.34,3.38l1.54-.5,.06,2.6-3.16,1.79Zm3.43,.87c4.58-.5,6.4-3.38,6.34-8.96,0-.36,0-.84-.03-1.4h-5.36v-2.43h5.31c-.06-1.54-.11-3.07-.11-3.99h2.6c.03,.92,.06,2.46,.06,3.99h3.43v2.43h-3.41c0,.53,.03,1.03,.03,1.4,.06,5.92-1.68,10.19-7.32,11.37l-1.54-2.4Zm11.39-14.07c-.22-.89-1.01-2.51-1.56-3.18l1.42-.59c1.03,.75,1.79,2.04,1.79,3.13l-1.65,.64Zm2.82-.5c-.2-1.03-.87-2.35-1.51-3.13l1.37-.56c1.01,.73,1.76,1.98,1.76,3.07l-1.62,.61Z"/>
  <path class="cls-1" d="M17.76,189.37c-1.4-1.03-3.1-2.18-5.03-3.18v.11c0,2.32-2.12,3.91-4.8,3.85-2.96-.03-4.72-1.65-4.72-3.77,0-1.96,1.76-3.6,4.72-3.6,.89,0,1.65,.11,2.26,.31l-.08-3.99H3.38v-2.26h6.7c0-.64-.03-1.29-.03-1.93H3.38v-2.26h6.65c-.03-1.93-.08-3.41-.08-3.71h2.51c0,.31,.03,1.76,.06,3.71h5.42v2.26h-5.39c0,.64,0,1.29,.03,1.93h5.36v2.26h-5.33l.08,4.66c2.37,.95,4.97,2.32,6.56,3.35l-1.48,2.26Zm-9.86-4.5c-1.37,0-2.21,.59-2.21,1.54,0,.87,.81,1.54,2.15,1.56,1.45,0,2.21-.92,2.26-1.87,.03-.42-.03-.48-.03-.73-.5-.33-1.23-.47-2.18-.5Z"/>
  <path class="cls-1" d="M13.68,200.41l.08,6.76c.03,4.08-3.43,7.26-8.15,7.46l-1.54-2.15c3.24,.14,5.67-1.26,6.73-3.1-.36,.08-.78,.14-1.2,.14-2.35,0-3.91-1.54-3.91-3.63s1.7-3.66,3.91-3.66c.64,0,1.23,.14,1.7,.36l-.06-2.18H1.09v-2.35H11.23c-.03-1.76-.06-3.18-.06-3.83h2.49c0,.7,0,2.12,.03,3.83h6.73v2.35h-6.73Zm-4.08,3.91c-1.03,0-1.65,.73-1.65,1.56,0,.92,.64,1.56,1.65,1.56,1.06,0,1.65-.67,1.65-1.56,0-.95-.7-1.56-1.65-1.56Z"/>
</svg>